<svg width="22" height="21" viewBox="0 0 22 21" fill="none" xmlns="http://www.w3.org/2000/svg">
<path d="M18.3333 7.00001L12.8333 2.39751C12.3291 1.96704 11.6764 1.72906 11 1.72906C10.3236 1.72906 9.67085 1.96704 9.16666 2.39751L3.66666 7.00001C3.3755 7.24857 3.14315 7.55349 2.98509 7.89447C2.82704 8.23545 2.74689 8.60465 2.75 8.97751V16.625C2.75 17.3212 3.03973 17.9889 3.55545 18.4812C4.07118 18.9734 4.77065 19.25 5.5 19.25H16.5C17.2293 19.25 17.9288 18.9734 18.4445 18.4812C18.9603 17.9889 19.25 17.3212 19.25 16.625V8.96876C19.2518 8.59737 19.171 8.22985 19.013 7.89048C18.855 7.5511 18.6233 7.24759 18.3333 7.00001ZM9.16666 17.5V13.125C9.16666 12.8929 9.26324 12.6704 9.43515 12.5063C9.60706 12.3422 9.84021 12.25 10.0833 12.25H11.9167C12.1598 12.25 12.3929 12.3422 12.5648 12.5063C12.7368 12.6704 12.8333 12.8929 12.8333 13.125V17.5H9.16666ZM17.4167 16.625C17.4167 16.8571 17.3201 17.0796 17.1482 17.2437C16.9763 17.4078 16.7431 17.5 16.5 17.5H14.6667V13.125C14.6667 12.4288 14.3769 11.7611 13.8612 11.2689C13.3455 10.7766 12.646 10.5 11.9167 10.5H10.0833C9.35398 10.5 8.65451 10.7766 8.13879 11.2689C7.62306 11.7611 7.33333 12.4288 7.33333 13.125V17.5H5.5C5.25688 17.5 5.02372 17.4078 4.85181 17.2437C4.67991 17.0796 4.58333 16.8571 4.58333 16.625V8.96876C4.58349 8.84452 4.61137 8.72174 4.66511 8.60859C4.71885 8.49543 4.79722 8.3945 4.895 8.31251L10.395 3.71876C10.5623 3.57848 10.7773 3.50111 11 3.50111C11.2227 3.50111 11.4377 3.57848 11.605 3.71876L17.105 8.31251C17.2028 8.3945 17.2811 8.49543 17.3349 8.60859C17.3886 8.72174 17.4165 8.84452 17.4167 8.96876V16.625Z" fill="#EF233C"/>
<path d="M18.3333 7.00001L12.8333 2.39751C12.3291 1.96704 11.6764 1.72906 11 1.72906C10.3236 1.72906 9.67085 1.96704 9.16666 2.39751L3.66666 7.00001C3.3755 7.24857 3.14315 7.55349 2.98509 7.89447C2.82704 8.23545 2.74689 8.60465 2.75 8.97751V16.625C2.75 17.3212 3.03973 17.9889 3.55545 18.4812C4.07118 18.9734 4.77065 19.25 5.5 19.25H16.5C17.2293 19.25 17.9288 18.9734 18.4445 18.4812C18.9603 17.9889 19.25 17.3212 19.25 16.625V8.96876C19.2518 8.59737 19.171 8.22985 19.013 7.89048C18.855 7.5511 18.6233 7.24759 18.3333 7.00001ZM9.16666 17.5V13.125C9.16666 12.8929 9.26324 12.6704 9.43515 12.5063C9.60706 12.3422 9.84021 12.25 10.0833 12.25H11.9167C12.1598 12.25 12.3929 12.3422 12.5648 12.5063C12.7368 12.6704 12.8333 12.8929 12.8333 13.125V17.5H9.16666ZM17.4167 16.625C17.4167 16.8571 17.3201 17.0796 17.1482 17.2437C16.9763 17.4078 16.7431 17.5 16.5 17.5H14.6667V13.125C14.6667 12.4288 14.3769 11.7611 13.8612 11.2689C13.3455 10.7766 12.646 10.5 11.9167 10.5H10.0833C9.35398 10.5 8.65451 10.7766 8.13879 11.2689C7.62306 11.7611 7.33333 12.4288 7.33333 13.125V17.5H5.5C5.25688 17.5 5.02372 17.4078 4.85181 17.2437C4.67991 17.0796 4.58333 16.8571 4.58333 16.625V8.96876C4.58349 8.84452 4.61137 8.72174 4.66511 8.60859C4.71885 8.49543 4.79722 8.3945 4.895 8.31251L10.395 3.71876C10.5623 3.57848 10.7773 3.50111 11 3.50111C11.2227 3.50111 11.4377 3.57848 11.605 3.71876L17.105 8.31251C17.2028 8.3945 17.2811 8.49543 17.3349 8.60859C17.3886 8.72174 17.4165 8.84452 17.4167 8.96876V16.625Z" stroke="#EF233C"/>
</svg>
